<svg xmlns="http://www.w3.org/2000/svg" xml:space="preserve" width="2000" height="1500" data-id="lg_pujAqUAvfGZVV5kv1X" data-version="1" viewBox="0 0 2000 1500"><path fill="#be7034" stroke="transparent" d="M0 0h2000v1500H0z"/><g data-padding="20"><g transform="translate(-1150.097 -858.772)scale(2.09425)"><rect width="560" height="517.54" x="346.167" y="109.275" fill="none" rx="0" ry="0" transform="translate(400.5 400.14)"/><path fill="#e5dac4" d="M848.047 814.965v92.97h-73.28v-289.91h138.32q54.5 0 79.46 24.5 24.96 24.51 24.96 72.14 0 35.72-17.86 61.14t-47.18 31.83l-.45 1.38q11.45 7.32 25.19 24.27t27.25 36.87 24.04 37.33v.45h-85.19l-49.46-73.28q-6.41-9.61-10.3-13.74-3.9-4.12-9.16-5.03-5.27-.92-16.72-.92Zm53.13-137.4h-53.13v77.86h53.13q22.9 0 31.83-9.16t8.93-29.77-8.93-29.77-31.83-9.16m377.85 230.37h-69.62l-2.75-32.51h-1.83q-7.78 18.32-22.21 27.48t-41.91 9.16q-44.42 0-65.03-25.88t-21.53-78.09q-.46-46.72 9.62-74.2 10.07-27.48 31.6-39.38 21.53-11.91 54.96-11.91 17.4 0 31.6 2.98 14.2 2.97 22.9 8.01l.92-.46v-93.43h73.28Zm-114.5-58.16q18.32 0 29.77-11.45t11.45-38.02v-48.09q-16.95-6.87-39.85-6.87-21.52 0-30.91 10.31-9.39 10.3-9.39 41.45 0 26.56 7.56 39.62 7.55 13.05 31.37 13.05"/></g><path fill="transparent" stroke="transparent" stroke-width="2.172" d="M391.892 187.5h1216.216v1125H391.892z"/></g></svg>